<svg id="img_1" xmlns="http://www.w3.org/2000/svg" viewBox="0 0 174.4 71.6"><style>.st0{fill:#e4007f}.st1{fill:#036eb8}</style><path class="st0" d="M60.8 15.4c-.2 0-.3-.1-.5-.2s-.2-.3-.2-.5.1-.3.2-.5.3-.2.5-.2.3.1.5.2.2.3.2.5-.2.3-.3.5c.1.2-.3.2-.4.2z"/><path class="st1" d="M60.8 15.4c-.2 0-.4 0-.6-.1-.2-.1-.4-.3-.5-.6s-.1-.7.1-1 .7-.6 1-.5c.2 0 .4.1.6.2.2.1.3.3.4.4.2.3.2.7.1 1-.2.2-.3.5-.6.6h-.5zm0-.1c.3 0 .6-.3.6-.6s-.3-.6-.6-.6-.6.2-.6.6c-.1.3.2.6.6.6z"/><path class="st0" d="M66.3 12.3H63v-.8h3.2v.8z"/><path class="st1" d="M66.3 12.3c-.9.2-2 .5-3.2.7l-.7.1-.2-.8-.2-.8-.2-1.1 1.1.2 3.2.7.2.1V12.3zm-.2-.1v-.7l.1.1H63l.1-.1v.8l-.1-.1h3.1z"/><path class="st0" d="M68.8 6.8l-.2 2.7h-.7l-.2-2.6 1.1-.1z"/><path class="st1" d="M68.8 6.8c.2.3.3.7.5 1.1.1.5.2 1 .2 1.6v.7l-1 .1H67l-.1-.9v-.7V8c0-.4.1-.9.2-1.3l.2-.6.5.1c.5.2 1 .4 1 .6zm0 .1h-1l.1-.1c.1.9.1 1.7.2 2.6l-.1-.1h.7l-.2.2.3-2.6z"/><path class="st0" d="M71.5 6.8l-.2 2.6h-.7l-.1-2.6h1z"/><path class="st1" d="M71.5 6.8c.2.3.3.7.5 1.1.1.5.2 1 .2 1.6v.7l-.9.1h-1.5l-.1-.9v-.7V8c0-.4.1-.9.2-1.3l.4-.6.4.2c.3.1.7.3.8.5zm0 .1h-1l.1-.1c.1.9.1 1.7.2 2.6l-.1-.1h.7l-.1.1.2-2.5z"/><path class="st0" d="M74.3 6.8L74 9.4h-.7l-.2-2.6h1.2z"/><path class="st1" d="M74.4 6.8c.2.3.3.7.5 1.1.1.5.2 1 .2 1.6v.7l-1 .1h-1.5l-.1-.8v-.7-.7c0-.4.1-.9.2-1.3l.4-.6.4.1c.3.1.8.3.9.5zm-.1.1h-1l.1-.1c.1.9.1 1.7.2 2.6l-.1-.1h.7l-.1.1.2-2.5z"/><path class="st0" d="M77.2 6.8L77 9.4h-.7l-.2-2.6h1.1z"/><path class="st1" d="M77.2 6.8c.2.3.3.7.5 1.1.1.5.2 1 .2 1.6v.7l-1 .1h-1.5v-.9-.7V8c0-.4.1-.9.2-1.3l.2-.6.4.1c.3.2.8.4 1 .6zm0 .1h-1l.1-.1c.1.9.1 1.7.2 2.6l-.1-.1h.6l-.1.1.3-2.5z"/><path class="st0" d="M82 12.3h-3.2v-.8H82v.8z"/><path class="st1" d="M82 12.3c-.9.2-2 .5-3.2.7l-.6.1-.1-.8-.1-.8-.2-1.1 1.1.2 3.2.7.2.1v.2c0 .2-.1.5-.3.7zm0-.1v-.7l.1.1h-3.2l.1-.1v.8l-.1-.1H82z"/><path class="st0" d="M84.2 15.4c-.2 0-.3-.1-.5-.2s-.2-.3-.2-.5.1-.3.2-.5.3-.2.5-.2.3.1.5.2.2.3.2.5-.1.3-.2.5c-.3.1-.4.2-.5.2z"/><path class="st1" d="M84.2 15.4c-.2 0-.4 0-.6-.1s-.4-.3-.5-.6-.1-.7.1-1 .7-.6 1-.5c.2 0 .4.1.6.2.2.1.3.3.4.4.2.3.2.7.1 1s-.3.5-.6.6h-.5zm0-.1c.3 0 .6-.3.6-.6s-.3-.6-.6-.6-.6.2-.6.6c-.1.3.2.6.6.6z"/><path class="st0" d="M87.3 13.9l-.9 2.9h-.7l.7-2.9h.9z"/><path class="st1" d="M87.3 13.9c.1.3.1.8.1 1.4s-.1 1.2-.3 1.8l-.1.6H84.4l.3-1.2c.1-.5.3-1 .4-1.4.2-.5.4-.9.7-1.4l.2-.4h.3c.5.3.9.5 1 .6zm0 0h-.9.1l-.6 2.9-.2-.1h.7l-.1.1 1-2.9z"/><path class="st0" d="M89.3 15.4c-.2 0-.3-.1-.5-.2s-.2-.3-.2-.5.1-.3.2-.5.3-.2.5-.2.3.1.5.2.2.3.2.5-.1.3-.2.5c-.1.1-.3.2-.5.2z"/><path class="st1" d="M89.3 15.4c-.2 0-.4 0-.6-.1s-.4-.3-.5-.6-.1-.7.1-1 .7-.6 1-.5c.2 0 .4.1.6.2.2.1.3.3.4.4.2.3.2.7.1 1-.2.3-.3.5-.6.6h-.5zm0-.1c.3 0 .6-.3.6-.6s-.3-.6-.6-.6-.6.2-.6.6c.1.3.2.6.6.6z"/><path class="st0" d="M94.7 12.3h-3.2v-.8h3.2v.8z"/><path class="st1" d="M94.7 12.3c-.9.2-2 .5-3.2.7l-.6.1-.1-.8-.2-.8-.2-1.1 1.1.2 3.2.7.2.1v.2c0 .2-.1.5-.2.7zm0-.1v-.7l.1.1h-3.2l.1-.1v.8l-.1-.1h3.1z"/><path class="st0" d="M97.3 6.8l-.2 2.6h-.7l-.2-2.6h1.1z"/><path class="st1" d="M97.3 6.8c.2.3.3.7.5 1.1.1.5.2 1 .2 1.6v.7l-.9.1h-1.5l-.1-.9v-.7V8c0-.4.1-.9.2-1.3l.2-.6.5.1c.4.2.9.4.9.6zm0 .1h-1l.1-.1c.1.9.1 1.7.2 2.6l-.1-.1h.7l-.2.1.3-2.5z"/><path class="st0" d="M100 6.8l-.2 2.6h-.7L99 6.8h1z"/><path class="st1" d="M100.2 6.8c.2.3.3.7.5 1.1.1.5.2 1 .2 1.6v.7l-1 .1h-1.5v-.9-.7V8c0-.4.1-.9.2-1.3l.2-.6.4.1c.3.2.7.4 1 .6zm-.2.1h-1l.1-.1c.1.9.1 1.7.2 2.6l-.1-.1h.7l-.1.1.2-2.5z"/><path class="st0" d="M102.9 6.8l-.2 2.7h-.7l-.2-2.6 1.1-.1z"/><path class="st1" d="M102.9 6.8c.2.3.3.7.5 1.1.1.5.2 1 .2 1.6v.7l-1 .1h-1.5l-.1-.9v-.7V8c0-.4.1-.9.2-1.3l.2-.6.5.1c.4.2.8.4 1 .6zm-.1.1h-1l.1-.1c.1.9.1 1.7.2 2.6l-.1-.1h.7l-.1.1.2-2.5z"/><path class="st0" d="M105.7 6.8l-.3 2.6h-.7l-.2-2.6h1.2z"/><path class="st1" d="M105.7 6.8c.2.3.3.7.5 1.1.1.5.2 1 .2 1.6v.7l-1 .1h-1.5l-.1-.9v-.7V8c0-.4.1-.9.2-1.3l.4-.6.4.1c.2.2.6.4.9.6zm0 .1h-1l.1-.1c.1.9.1 1.7.2 2.6l-.1-.1h.7l-.1.1.2-2.5z"/><path class="st0" d="M110.5 12.3h-3.2v-.8h3.2v.8z"/><path class="st1" d="M110.7 12.3c-.9.2-2 .5-3.2.7l-.6.1-.2-.8-.3-.8-.2-1.1 1.1.2 3.2.7.2.1V12.3zm-.2-.1v-.7l.1.1h-3.2l.1-.1v.8l-.1-.1h3.1z"/><path class="st0" d="M112.5 15.4c-.2 0-.3-.1-.5-.2s-.2-.3-.2-.5.1-.3.2-.5c.2-.2.3-.2.5-.2s.3.1.5.2.2.3.2.5-.1.3-.2.5c-.1.1-.2.2-.5.2z"/><path class="st1" d="M112.5 15.4c-.2 0-.4 0-.6-.1s-.4-.3-.5-.6-.1-.7.1-1 .7-.6 1-.5c.2 0 .4.1.6.2.2.1.3.3.4.4.2.3.2.7.1 1-.2.3-.3.5-.6.6h-.5zm0-.1c.3 0 .6-.3.6-.6s-.3-.6-.6-.6-.6.2-.6.6c.1.3.4.6.6.6z"/><path class="st0" d="M57.8 29.8c-.2 0-.3-.1-.5-.2-.2-.2-.2-.2-.2-.5 0-.2.1-.3.2-.5s.3-.2.5-.2.3.1.5.2c.2.2.2.3.2.5s-.1.3-.2.5-.2.2-.5.2zm.5-8.5l-.1 6h-.8l-.1-6h1z"/><path class="st1" d="M57.8 29.8c-.2 0-.4 0-.6-.1s-.5-.3-.5-.6c-.1-.3-.1-.7.1-1s.6-.5 1-.5c.2 0 .4.2.6.2.2.1.3.2.4.4.2.3.2.7.1 1s-.3.5-.5.6h-.6zm0-.1c.3 0 .6-.3.6-.6s-.3-.6-.6-.5c-.3 0-.6.2-.6.5.1.3.3.6.6.6z"/><path class="st1" d="M58.5 21.3c.2.8.4 1.8.5 2.8s.2 2.2.2 3.3v.8h-2.7v-.9c0-1 0-2 .1-3s.2-2 .4-3l.1-.4h.2c.5.1.8.2 1.2.4zm-.2 0h-1l.1-.1.1 6h-.1.8l-.1.2.2-6.1z"/><path class="st0" d="M74.9 29.7h-1v-8.4h1v8.4z"/><path class="st1" d="M74.9 29.7c-.3.1-.6.2-1 .2h-.2v-.3c-.3-1.4-.4-2.8-.5-4.2-.1-1.4-.1-2.8-.1-4.2v-.9h2.8v.9c0 1.5-.1 3-.3 4.5-.1.7-.1 1.4-.3 2.1-.2.7-.3 1.3-.4 1.9zm-.1 0l-.1-8.4.1.1h-1l.1-.1v8.4l-.1-.1 1 .1z"/><path class="st0" d="M84.8 29.7h-4.4v-8.4h1v7.5h3.4v.9z"/><path class="st1" d="M84.8 29.7c-.6.1-1.3.2-2.1.3-.7.1-1.5.2-2.3.2h-.5v-.6l-.2-2.1c-.1-.7-.1-1.4-.1-2.1l-.1-4.1v-.9h2.7v.9l-.1 3.8c0 1.3-.2 2.5-.2 3.8l-.5-.5c1.1.1 2.2.2 3.4.4h.2v.2c-.1.1-.2.4-.2.7zm0 0v-.9l.1.1h-3.5v-7.6l.1.1h-1l.1-.1v8.4l-.2-.1 4.4.1z"/><path class="st0" d="M89 29.8c-1.2 0-2.1-.4-2.9-1.2-.8-.8-1.1-1.8-1.1-3.1 0-1.4.4-2.4 1.1-3.2.7-.8 1.7-1.2 3-1.2 1.2 0 2.1.4 2.8 1.2.6.8 1.1 1.8 1.1 3.1 0 1.4-.4 2.5-1.1 3.3-.6.8-1.6 1.1-2.9 1.1zm.2-7.7c-.9 0-1.6.3-2.2 1-.6.6-.8 1.5-.8 2.5s.3 1.9.8 2.5 1.2.9 2.1.9 1.6-.3 2.2-.9.8-1.4.8-2.5-.3-2-.8-2.6c-.5-.7-1.3-.9-2.1-.9z"/><path class="st1" d="M89 29.8c-1.1 0-2.3-.4-3.1-1.2-.8-.8-1.3-2-1.3-3.2-.1-1.2.1-2.5.9-3.6.4-.5 1-1 1.6-1.2.6-.3 1.3-.4 1.9-.4s1.3.1 2 .4c.6.3 1.2.8 1.6 1.3.8 1.1 1 2.5.9 3.6-.1 1.2-.5 2.4-1.4 3.2-.8.8-1.9 1.3-3.1 1.1zm0-.1c1.1 0 2.2-.4 2.9-1.2s1-1.9 1-3-.2-2.2-1-3c-.7-.8-1.8-1.3-2.9-1.2-1.1 0-2.2.4-2.9 1.2s-1 1.9-1 3 .2 2.2 1 3c.7.8 1.8 1.3 2.9 1.2z"/><path class="st1" d="M89.2 22.1c-.4 0-.8.1-1.2.3-.4.2-.7.5-.9.8-.4.6-.5 1.5-.4 2.3s.4 1.5.9 1.9c.5.5 1 .7 1.6.6.7 0 1.2-.2 1.6-.6s.7-1.1.8-1.9c.1-.8.1-1.6-.3-2.3-.2-.3-.5-.6-.9-.8-.5-.3-.9-.3-1.2-.3zm0-.2c.9 0 1.8.3 2.3 1s.7 1.6.7 2.5-.2 1.8-.7 2.5-1.4 1.1-2.3 1.1-1.8-.4-2.3-1.1-.7-1.6-.7-2.5.2-1.8.8-2.4c.3-.7 1.3-1.1 2.2-1.1z"/><g><path class="st0" d="M101 21.3l-3.1 8.4h-1.1l-3-8.4h1.1l2.3 6.7c.1.2.1.5.2.7 0-.2.1-.5.2-.8l2.4-6.7 1 .1z"/><path class="st1" d="M101 21.3c-.4 1.3-.8 2.7-1.1 4.2-.4 1.5-.9 3-1.4 4.5l-.2.4h-.5l-1.1.1h-.5l-.1-.5c-.3-.7-.5-1.4-.8-2.1l-.8-2.1-.8-2.1c-.3-.7-.5-1.4-.8-2.1l-.4-1.4h2.9l.2.6 1.2 3.7.6 1.9.3.9c.1.3.2.7.2 1.1l-.7-.6-.5.7c.1-.4.2-.8.3-1.1l.4-.9.8-1.8c.5-1.2 1.1-2.4 1.6-3.6l.1-.1h.1l1 .3zm0 0h-1L98.7 25l-.7 1.8c-.2.6-.4 1.2-.6 1.9v.1h-.2v-.1c-.1-.6-.3-1.2-.6-1.9l-.5-1.8-1.2-3.7.1.1h-1l.1-.1 3 8.4-.1-.1h1.1-.2l3.1-8.3z"/></g><g><path class="st0" d="M106.8 29.7h-4.5v-8.4h4.3v.9h-3.3V25h3v.9h-3v2.9h3.5v.9z"/><path class="st1" d="M106.8 29.7c-1.4.1-2.9.3-4.5.4h-.4v-.5c-.1-.7-.1-1.4-.1-2.1l-.1-2.1c-.1-1.4-.1-2.8-.1-4.2v-.8h.8l4.3-.1h.9v2.8h-4.2l.9-.9V25l-.9-.9h3.8v2.5h-.7l-3-.1.6-.6c-.1 1-.1 2-.2 2.9l-.7-.5c1.2.1 2.3.2 3.5.3h.2v.1l-.1 1zm-.3 0v-.9l.1.1H103v-3.1h3.1l-.1.1V25l.1.1H103v-3h3.4v.1-.9l.1.1h-4.3l.1-.1v8.4l-.1-.1h4.3v.1z"/></g><g><path class="st0" d="M118.8 29.8c-.2 0-.3-.1-.5-.2-.2-.2-.2-.3-.2-.5s.1-.3.2-.5.3-.2.5-.2.3.1.5.2c.2.2.2.3.2.5s-.1.3-.2.5-.4.2-.5.2zm.5-8.5l-.1 6h-.8l-.1-6h1z"/><path class="st1" d="M118.8 29.8c-.2 0-.4 0-.6-.1s-.5-.3-.5-.6c-.1-.3-.1-.7.1-1s.6-.5 1-.5c.2 0 .4.1.6.1.2.1.3.2.4.4.2.3.2.7.1 1s-.3.5-.5.6c-.4.1-.5.1-.6.1zm0-.1c.3 0 .6-.3.6-.6s-.3-.6-.6-.5c-.3 0-.6.2-.6.5.1.3.2.6.6.6z"/><path class="st1" d="M119.3 21.3c.2.8.4 1.8.5 2.8s.2 2.2.2 3.3v.8h-2.6v-.9c0-1 0-2 .1-3s.2-2 .4-3l.1-.4h.2c.6.1.8.2 1.1.4zm0 0h-1l.1-.1.1 6h-.1.8l-.1.1.2-6z"/></g><g><path class="st0" d="M61.3 35.7l-.2 2.7h-.6l-.2-2.6 1-.1zm2.1 0l-.2 2.7h-.7l-.2-2.6 1.1-.1z"/><path class="st1" d="M61.5 35.7c.2.3.3.7.5 1.1.1.5.2 1 .2 1.6v.7l-1 .1h-1.5l-.1-.8v-.7-.7c0-.4.1-.9.2-1.3l.2-.6.3.1c.5.1 1 .3 1.2.5zm-.2.1h-1l.1-.1c.1.9.1 1.7.2 2.6h-.2.7l-.1.1.3-2.6z"/><path class="st1" d="M63.4 35.7c.2.3.3.7.5 1.1.1.5.2 1 .2 1.6v.7l-.9.1h-1.5l-.1-.8v-.7-.7c0-.4.1-.9.2-1.3l.2-.6.4.1c.4.1.7.3 1 .5zm-.1.1h-1l.1-.1c.1.9.1 1.7.2 2.6l-.1-.1h.7l-.2.2.3-2.6z"/></g><g><path class="st0" d="M65.4 44.3c-.2 0-.3-.1-.5-.2s-.2-.3-.2-.5.1-.3.2-.5.3-.2.5-.2.3.1.5.2.2.3.2.5-.1.3-.2.5-.1.2-.5.2z"/><path class="st1" d="M65.4 44.3c-.2 0-.4 0-.6-.1s-.4-.3-.5-.6-.1-.7.1-1 .7-.6 1-.5c.2 0 .4.1.6.2.2.1.3.3.4.4.2.3.2.7.1 1s-.3.5-.6.6h-.5zm0-.1c.3 0 .6-.3.6-.6s-.3-.6-.6-.6-.6.2-.6.6c.1.3.3.6.6.6z"/></g><g><path class="st0" d="M83.3 35.7L80.5 41v3.1h-1V41l-2.7-5.3h1.1l1.9 3.8s.1.2.2.5c0-.1.1-.3.2-.5l2-3.8h1.1z"/><path class="st1" d="M83.3 35.7c-.3.8-.7 1.7-1 2.7s-.8 2-1.2 2.9l.1-.3c.1 1 .1 2.1.2 3.1v.8h-2.6v-.8l-.2-3 .1.4c-.5-.9-1-1.7-1.4-2.6l-1.4-2.7-.6-1.2H78.2l.3.4c.3.7.7 1.4 1 2.2l.5 1.1.2.6.2.6-.6-.4-.6.4.3-.6.3-.5c.2-.3.4-.7.6-1l1.3-2 .2-.2h.1c.7-.1 1 .1 1.3.1zm0 .1h-1L81.2 38c-.4.7-.8 1.4-1.1 2.2-.3-.7-.7-1.4-1-2.2l-1-2.1h.1-1.1l.1-.1 2.7 5.3v3.1l-.1-.1h1l-.2.1v-3.1l2.7-5.3z"/></g><g><path class="st0" d="M87.7 44.3c-1.2 0-2.1-.4-2.9-1.2s-1.1-1.8-1.1-3.1c0-1.4.4-2.4 1.1-3.2s1.7-1.2 3-1.2c1.2 0 2.1.4 2.8 1.2.7.8 1.1 1.8 1.1 3.1 0 1.4-.4 2.5-1.1 3.3-.8.7-1.8 1.1-2.9 1.1zm0-7.8c-.9 0-1.6.3-2.2 1s-.8 1.4-.8 2.5.3 1.9.8 2.5 1.3.9 2.2.9 1.6-.3 2.2-.9c.6-.6.8-1.4.8-2.5s-.3-2-.8-2.6c-.6-.7-1.4-.9-2.2-.9z"/><path class="st1" d="M87.7 44.3c-1.1 0-2.3-.4-3.1-1.2-.8-.8-1.3-2-1.3-3.2-.1-1.2.1-2.5.9-3.6.4-.5 1-1 1.6-1.2.6-.3 1.3-.4 1.9-.4s1.3.1 2 .4c.6.3 1.2.8 1.6 1.3.8 1.1 1 2.5.9 3.6-.1 1.2-.5 2.4-1.4 3.2-1 .7-2 1.2-3.1 1.1zm0-.1c1.1 0 2.2-.4 2.9-1.2.7-.8 1-1.9 1-3s-.2-2.2-1-3c-.7-.8-1.8-1.3-2.9-1.2-1.1 0-2.2.4-2.9 1.2-.7.8-1 1.9-1 3s.2 2.2 1 3c.5.8 1.7 1.3 2.9 1.2z"/><path class="st1" d="M87.7 36.5c-.4 0-.8.1-1.2.3-.4.2-.7.5-.9.8-.4.7-.5 1.5-.4 2.3s.4 1.5.9 1.9c.5.5 1 .7 1.6.6.7 0 1.2-.2 1.6-.6.4-.4.7-1.1.8-1.9.1-.8.1-1.6-.3-2.3-.2-.3-.5-.6-.9-.8-.4-.2-.9-.2-1.2-.3zm0-.2c.9 0 1.8.3 2.3 1s.7 1.6.7 2.5-.2 1.8-.7 2.5-1.4 1.1-2.3 1.1-1.8-.4-2.3-1.1c-.5-.7-.7-1.6-.7-2.5s.2-1.8.8-2.4c.4-.7 1.3-1.1 2.2-1.1z"/></g><g><path class="st0" d="M99.5 40.7c0 2.4-1.1 3.5-3.2 3.5-2 0-3.1-1.1-3.1-3.4v-5.1h1v5.1c0 1.7.7 2.6 2.2 2.6 1.4 0 2.1-.8 2.1-2.5v-5.2h1v5z"/><path class="st1" d="M99.5 40.7c0 .7-.1 1.3-.3 2-.3.6-.8 1.2-1.4 1.4-.6.3-1.3.3-2 .3s-1.4-.2-2-.8c-.6-.5-.8-1.3-1-2-.1-.7-.1-1.4-.2-2-.1-1.3-.2-2.6-.2-4v-.8H95v.9c0 1.5.1 3 0 4.5v1c0 .3.1.6.2.8.2.4.5.6 1.1.6s1-.1 1.3-.5c.3-.5.3-1.2.4-1.9l.3-4.5v-.2h1.4v.2c0 .8-.1 1.7-.1 2.5l-.1 2.5zm-.2 0v-5l.1.1h-1l.2-.1v4.5c0 .7.1 1.5-.3 2.2-.2.3-.4.7-.8.8-.4.2-.7.2-1.1.2s-.8-.1-1.1-.2c-.4-.2-.6-.5-.8-.8-.3-.7-.3-1.5-.3-2.2v-4.5l.1.1h-1l.1-.1v6c.1.6.3 1.3.7 1.8.4.5 1.1.7 1.7.8s1.3 0 1.9-.2 1.1-.7 1.3-1.3c.3-.8.3-1.4.3-2.1z"/></g><g><path class="st0" d="M111.7 44.3c-.2 0-.3-.1-.5-.2s-.2-.3-.2-.5.1-.3.2-.5.3-.2.5-.2.3.1.5.2.2.3.2.5-.1.3-.2.5c-.2.2-.4.2-.5.2z"/><path class="st1" d="M111.7 44.3c-.2 0-.4 0-.6-.1s-.4-.3-.5-.6-.1-.7.1-1 .7-.6 1-.5c.2 0 .4.1.6.2l.4.4c.2.3.2.7.1 1s-.3.5-.6.6h-.5zm0-.1c.3 0 .6-.3.6-.6s-.3-.6-.6-.6-.6.2-.6.6c-.1.3.2.6.6.6z"/></g><g><path class="st0" d="M114.8 35.7l-.2 2.6h-.6l-.2-2.6h1zm2 0l-.2 2.6h-.7l-.2-2.6h1.1z"/><path class="st1" d="M114.8 35.7c.2.3.3.7.5 1.1.1.5.2 1 .2 1.6v.7l-.9.1h-1.5l-.1-.9v-.7-.7c0-.4.1-.9.2-1.3l.2-.6.4.1c.5.2 1 .4 1 .6zm0 .1h-1l.1-.1c.1.9.1 1.7.2 2.6l-.1-.1h.7l-.1.1.2-2.5z"/><path class="st1" d="M116.8 35.7c.2.3.3.7.5 1.1.1.5.2 1 .2 1.6v.7l-.9.1H115l-.1-.9v-.7-.7c0-.4.1-.9.2-1.3l.2-.6.4.1c.6.2 1 .4 1.1.6zm0 .1h-1l.1-.1c.1.9.1 1.7.2 2.6l-.1-.1h.7l-.1.1.2-2.5z"/></g><g><path class="st0" d="M71.3 50.1l-.2 2.6h-.7l-.2-2.6h1.1z"/><path class="st1" d="M71.3 50.1c.2.3.3.7.5 1.1.1.5.2 1 .2 1.6v.7l-.9.1h-1.5l-.1-.9V52v-.7c0-.4.1-.9.2-1.3l.2-.6.4.1c.5.2.8.4 1 .6zm-.2.1h-1l.1-.1c.1.9.1 1.7.2 2.6l-.1-.1h.7l-.1.1.2-2.5z"/></g><g><path class="st0" d="M74 50.1l-.2 2.6h-.7l-.2-2.6H74z"/><path class="st1" d="M74.1 50.1c.2.3.3.7.5 1.1.1.5.2 1 .2 1.6v.7l-.9.1h-1.5l-.1-.9V52v-.7c0-.4.1-.9.2-1.3l.2-.6.4.1c.3.2.7.4 1 .6zm-.1.1h-1l.1-.1c.1.9.1 1.7.2 2.6l-.1-.1h.7l-.1.1.2-2.5z"/></g><g><path class="st0" d="M76.8 50.1l-.2 2.7h-.7l-.3-2.6 1.2-.1z"/><path class="st1" d="M76.8 50.1c.2.3.3.7.5 1.1.1.5.2 1 .2 1.6v.7l-.9.1h-1.5l-.1-.9V52v-.7c0-.4.1-.9.2-1.3l.2-.6.4.1c.3.2 1 .4 1 .6zm0 .1h-1l.1-.1c.1.9.1 1.7.2 2.6l-.1-.1h.7l-.1.1.2-2.5z"/></g><g><path class="st0" d="M81.8 55.6h-3.2v-.8h3.2v.8z"/><path class="st1" d="M81.8 55.6c-.9.2-2 .5-3.2.7l-.5.1-.2-.8-.2-.8-.3-1.1 1.1.2 3.2.7.2.1v.2c0 .2-.1.5-.1.7zm0-.1v-.7l.1.1h-3.2l.1-.1v.8l-.1-.1h3.1z"/></g><g><path class="st0" d="M83.8 58.7c-.2 0-.3-.1-.5-.2s-.2-.3-.2-.5.1-.3.2-.5.3-.1.5-.1.3.1.5.2.2.3.2.5-.1.3-.2.5-.3.1-.5.1z"/><path class="st1" d="M83.8 58.7c-.2 0-.4 0-.6-.1s-.4-.3-.5-.6-.1-.7.1-1 .7-.6 1-.5c.2 0 .4.1.6.2.2.1.3.3.4.4.2.3.2.7.1 1-.2.3-.3.5-.6.6h-.5zm0-.1c.3 0 .6-.3.6-.6s-.3-.6-.6-.6-.6.2-.6.6c.1.3.2.6.6.6z"/></g><g><path class="st0" d="M86.9 57.2l-.9 2.9h-.7l.7-2.9h.9z"/><path class="st1" d="M87 57.2c.1.3.1.8.1 1.4s-.1 1.2-.3 1.8l-.1.6H84.1l.3-1.2c.1-.5.3-1 .4-1.4.2-.5.4-.9.7-1.4l.2-.4h.2c.5.3.9.5 1.1.6zm-.1 0H86h.1l-.6 2.9-.1-.1h.7l-.1.1.9-2.9z"/></g><g><path class="st0" d="M89.5 57.2l-.9 2.9h-.7l.7-2.9h.9z"/><path class="st1" d="M89.7 57.2c.1.3.1.8.1 1.4s-.1 1.2-.3 1.8l-.1.7H86.8l.3-1.2c.1-.5.3-1 .4-1.4.2-.5.4-.9.7-1.4l.2-.4h.2c.4.2.8.4 1.1.5zm-.2 0h-.9.1l-.6 2.9-.1-.1h.7l-.1.1.9-2.9z"/></g><g><path class="st0" d="M91.7 58.7c-.2 0-.3-.1-.5-.2-.2-.2-.2-.3-.2-.5s.1-.3.2-.5.3-.1.5-.1.3.1.5.2.2.3.2.5-.1.3-.2.5c-.2.2-.4.1-.5.1z"/><path class="st1" d="M91.7 58.7c-.2 0-.4 0-.6-.1s-.4-.3-.5-.6-.1-.7.1-1 .7-.6 1-.5c.2 0 .4.1.6.2.2.1.3.3.4.4.2.3.2.7.1 1-.2.3-.3.5-.6.6h-.5zm0-.1c.3 0 .6-.3.6-.6s-.3-.6-.6-.6-.6.2-.6.6c-.1.3.2.6.6.6z"/></g><g><path class="st0" d="M96.9 55.6h-3.2v-.8h3.2v.8z"/><path class="st1" d="M96.9 55.6c-.9.2-2 .5-3.2.7l-.4.1-.2-.8-.1-.8-.2-1.1 1.2.2 3.2.7.2.1v.2c-.1.2-.4.5-.5.7zm0-.1v-.7l.1.1h-3.2l.1-.1v.8l-.1-.1h3.1z"/></g><g><path class="st0" d="M99.7 50.1l-.2 2.6h-.7l-.2-2.6h1.1z"/><path class="st1" d="M99.7 50.1c.2.3.3.7.5 1.1.1.5.2 1 .2 1.6v.7l-.9.1H98l-.1-.9V52v-.7c0-.4.1-.9.2-1.3l.2-.6.4.1c.5.2.8.4 1 .6zm-.2.1h-1l.1-.1c.1.9.1 1.7.2 2.6l-.1-.1h.7-.1l.2-2.4z"/></g><g><path class="st0" d="M102.3 50.1l-.2 2.6h-.7l-.2-2.6h1.1z"/><path class="st1" d="M102.5 50.1c.2.3.3.7.5 1.1.1.5.2 1 .2 1.6v.7l-.9.1h-1.5l-.1-.8v-.7-.7c0-.4.1-.9.2-1.3l.2-.6.4.1c.3.1.8.3 1 .5zm-.2.1h-1l.1-.1c.1.9.1 1.7.2 2.6l-.1-.1h.7l-.1.1.2-2.5z"/></g><g><path class="st0" d="M105.3 50.1l-.2 2.6h-.7l-.2-2.6h1.1z"/><path class="st1" d="M105.3 50.1c.2.3.3.7.5 1.1.1.5.2 1 .2 1.6v.7l-.9.1h-1.5l-.1-.9V52v-.7c0-.4.1-.9.2-1.3l.2-.6.4.1c.2.2.6.4 1 .6zm-.3.1h-1l.1-.1c.1.9.1 1.7.2 2.6h.7-.2l.2-2.5z"/></g></svg>